<svg id="Layer_1" data-name="Layer 1" xmlns="http://www.w3.org/2000/svg" viewBox="0 0 258.62 187.55"><g id="CUSTOM-Group"><path d="M449.76,246l-24.07,19.38L397.84,246h0l-24.3,19.19L346,246l-77.42,53.81V433.55h63.25v-42a14.17,14.17,0,0,1,14.16-14.17h0a14.17,14.17,0,0,1,14.17,14.17v42h167V299.83ZM408,418.17h-32.5V387.25a22.51,22.51,0,0,0-9.41-18.38c-23.86-16.86-49.67,0-49.67,22.69v26.61H283.91v-111l62-41.43,62,41.43Zm51.9,0H423.35V299.83L387,274.53l10.89-8.77,62,41.43v111Zm51.89,0H475.25V299.76l-36.41-25.23,10.9-8.77,62,41.43Z" transform="translate(-268.53 -246)" style="fill:#b8860a"/></g></svg>