<svg id="Layer_1" data-name="Layer 1" xmlns="http://www.w3.org/2000/svg" viewBox="0 0 714.96 187.55"><g id="CUSTOM-Group"><path d="M449.76,246l-24.07,19.38L397.84,246h0l-24.3,19.19L346,246l-77.42,53.81V433.55h63.25v-42a14.17,14.17,0,0,1,14.16-14.17h0a14.17,14.17,0,0,1,14.17,14.17v42h167V299.83ZM408,418.17h-32.5V387.25a22.51,22.51,0,0,0-9.41-18.38c-23.86-16.86-49.67,0-49.67,22.69v26.61H283.91v-111l62-41.43,62,41.43Zm51.9,0H423.35V299.83L387,274.53l10.89-8.77,62,41.43v111Zm51.89,0H475.25V299.76l-36.41-25.23,10.9-8.77,62,41.43Z" transform="translate(-268.53 -246)" style="fill:#fff"/></g><path d="M568.18,383.05l20.37-104,33.21,75.19L656.16,279l18.29,104h-15l-9.34-58.39L621.51,387.5l-27.82-62.91-10.41,58.46Z" transform="translate(-268.53 -246)" style="fill:#fff"/><path d="M709.54,286.31v58.27q0,12.46,4.08,18.24,6.07,8.32,17.1,8.33t17.17-8.33q4.08-5.58,4.07-18.24V286.31h14.61v62.28q0,15.29-9.53,25.19a36.83,36.83,0,0,1-52.57,0q-9.53-9.9-9.53-25.19V286.31Z" transform="translate(-268.53 -246)" style="fill:#fff"/><path d="M804.35,324.91,842,286.31h19.48l-43.73,43.8,44,52.94H842.19l-34.83-43-3,3v40h-14.6V286.31h14.6Z" transform="translate(-268.53 -246)" style="fill:#fff"/><path d="M889.38,324.15h41.73V286.31h14.6v96.74h-14.6V337.88H889.38v45.17h-14.6V286.31h14.6Z" transform="translate(-268.53 -246)" style="fill:#fff"/><path d="M983.49,286.31v96.74h-14.6V286.31Z" transform="translate(-268.53 -246)" style="fill:#fff"/><path d="M564.31,432.89V396.73h5.43a23.61,23.61,0,0,1,5.79.56,8.63,8.63,0,0,1,3.67,1.9,9.9,9.9,0,0,1,2.42,3.44,10.59,10.59,0,0,1,.91,4.22,8.53,8.53,0,0,1-3,6.58,8.69,8.69,0,0,1,4.55,3.44,9.73,9.73,0,0,1,1.69,5.67,9.62,9.62,0,0,1-3,7.16,9.89,9.89,0,0,1-4,2.51,23.73,23.73,0,0,1-6.16.68Zm5.45-20.63h1.71a6.32,6.32,0,0,0,4.47-1.35,5.24,5.24,0,0,0,1.41-4,5,5,0,0,0-1.45-3.88,6.05,6.05,0,0,0-4.21-1.32h-1.93Zm0,15.5h3.38c2.46,0,4.28-.48,5.43-1.45a5,5,0,0,0,1.83-4,5.12,5.12,0,0,0-1.76-3.94c-1.14-1-3.18-1.57-6.11-1.57h-2.77Z" transform="translate(-268.53 -246)" style="fill:#fff"/><path d="M598.13,396.73v21.78q0,4.67,1.52,6.82a8.15,8.15,0,0,0,12.81,0c1-1.39,1.52-3.67,1.52-6.82V396.73h5.46V420a13,13,0,0,1-3.56,9.41,13.75,13.75,0,0,1-19.65,0,13,13,0,0,1-3.56-9.41V396.73Z" transform="translate(-268.53 -246)" style="fill:#fff"/><path d="M633.56,396.73v36.16h-5.45V396.73Z" transform="translate(-268.53 -246)" style="fill:#fff"/><path d="M647.71,396.73v31h10.63v5.13H642.25V396.73Z" transform="translate(-268.53 -246)" style="fill:#fff"/><path d="M663.52,432.89V396.73h7.59a27.56,27.56,0,0,1,8.62,1.08,16.13,16.13,0,0,1,6.16,3.58,17.31,17.31,0,0,1,5.6,13.42,17.13,17.13,0,0,1-5.84,13.49,16.92,16.92,0,0,1-6.13,3.58,28,28,0,0,1-8.5,1Zm5.46-5.13h2.46a20.67,20.67,0,0,0,6.11-.77A12.42,12.42,0,0,0,686,414.81a12.58,12.58,0,0,0-4-9.65q-3.59-3.3-10.56-3.3H669Z" transform="translate(-268.53 -246)" style="fill:#fff"/><path d="M718.8,402.12l-4.43,2.62a7.62,7.62,0,0,0-2.37-2.81,5.52,5.52,0,0,0-3-.75,5.58,5.58,0,0,0-3.77,1.29,4,4,0,0,0-1.5,3.18q0,2.66,3.94,4.26l3.6,1.48a15.33,15.33,0,0,1,6.44,4.34,9.79,9.79,0,0,1,2,6.29,11.08,11.08,0,0,1-3.32,8.25,11.47,11.47,0,0,1-8.32,3.28,11.09,11.09,0,0,1-7.77-2.79,12.81,12.81,0,0,1-3.78-7.85l5.53-1.21a9.45,9.45,0,0,0,1.31,4.4,6.24,6.24,0,0,0,9.16.63,5.89,5.89,0,0,0,1.69-4.33,6.2,6.2,0,0,0-.29-1.93,4.85,4.85,0,0,0-.92-1.62,7.38,7.38,0,0,0-1.6-1.38,15.82,15.82,0,0,0-2.34-1.23l-3.49-1.45q-7.43-3.15-7.43-9.19a8.71,8.71,0,0,1,3.12-6.81A11.25,11.25,0,0,1,709,396Q715.29,396,718.8,402.12Z" transform="translate(-268.53 -246)" style="fill:#fff"/></svg>